<svg width="1240" height="1240" viewBox="0 0 1240 1240" fill="none" xmlns="http://www.w3.org/2000/svg">
<g clip-path="url(#clip0)">
<path d="M1240 620C1240 962.381 962.416 1239.94 620.004 1239.94C277.584 1239.94 0.00415039 962.381 0.00415039 620C0.00415039 277.619 277.588 0.0600586 620.004 0.0600586C962.416 0.0600586 1240 277.619 1240 620Z" fill="white"/>
<path d="M614.823 220.456C636.649 232.971 659.804 249.077 677.424 266.149L670.505 273.066C635.723 269.388 599.095 273.982 566.123 274.488C562.451 270.797 555.043 265.249 561.938 260.613L614.823 220.456ZM1229.76 650.217C1230.22 665.83 1231.7 679.24 1225.57 695.226C1162.04 713.206 1120.3 646.286 1058.66 656.375L1065.63 691.063C1122.66 692.929 1158.29 747.338 1217.2 745C1208.83 761.628 1220.94 805.451 1183.86 787.935C1145.36 778.729 1117.52 745 1075.34 745C1070.25 754.292 1073.48 767.164 1072.58 778.165C1117.08 785.107 1149.09 822.527 1193.58 829.436C1189.39 844.646 1185.25 861.677 1172.71 870.949C1136.52 862.187 1108.24 829.85 1069.71 830.775L1062.85 862.627C1099.47 863.564 1123.13 895.792 1156.04 905.471C1156.94 918.902 1144.88 930.911 1137.91 942.899C1108.7 934.175 1086.43 909.203 1053.04 911.048C1052.58 898.533 1060.04 884.33 1057.23 870.949C1019.74 882.046 994.596 847.391 966.809 826.599C966.013 758.576 894.024 713.944 890.223 650.221C889.489 637.511 891.436 623.952 897.259 609.372C920.919 554.954 913.487 484.297 887.546 433.558C879.656 420.201 865.696 409.664 852.678 401.81C871.719 441.967 894.933 489.41 883.345 538.765C882.002 576.873 859.393 613.481 859.139 650.221C859.051 663.321 861.865 676.42 869.439 689.649C899.593 743.685 953.858 794.844 933.453 862.618C927.843 883.435 911.144 899.528 906.967 920.714C942.253 949.787 975.617 982.55 1022.44 984.392C1039.12 973.793 1029.85 926.789 1064.17 948.473L1114.28 973.407C1110.63 986.747 1099.4 998.706 1089.23 1007.9C1070.22 998.694 1051.67 987.655 1027.96 988.555C1020.98 995.936 1014.96 1004.22 1015.49 1014.8C1032.17 1017.54 1047.48 1024.54 1061.41 1034.24C1054.94 1048.11 1042.33 1056.79 1030.74 1067.41L991.87 1053.58C985.38 1062.82 971.899 1072.53 976.63 1082.67C985.405 1086.4 995.129 1091.45 1001.58 1097.93C984.429 1116.37 962.682 1128.25 941.757 1140.77C923.733 1082.16 864.341 1041.07 869.443 973.299L866.684 970.554C852.728 986.171 857.388 1011.13 858.288 1031.4C874.995 1073.85 914.846 1106.63 920.89 1153.19C913.912 1165.17 898.184 1167.56 886.108 1172.63C887.517 1088.7 759.534 1025.04 841.606 940.146C868.976 898.575 914.837 858.903 898.589 801.669C881.907 746.405 822.898 712.165 823.419 650.221L823.515 645.386C836.95 580.788 877.78 512.047 844.382 443.323C835.07 415.681 814.274 384.269 785.991 372.716C828.163 420.732 844.878 499.08 820.756 563.695C808.592 589.401 791.852 620.016 790.176 650.23H790.072C789.176 666.008 792.41 681.703 802.652 696.578C834.666 748.267 890.285 805.036 858.292 872.392C822.127 926.341 759.063 981.219 794.286 1052.28C819.784 1094.72 859.239 1137.06 848.588 1189.23L806.862 1203.06C834.682 1105.75 698.329 1048.58 755.415 951.234C790.651 899.114 853.682 850.203 818 781.022C796.67 738.157 752.602 712.788 753.986 659.224L755.507 650.226C769.867 574.257 827.925 502.34 787.325 421.159C776.658 397.182 755.345 372.745 731.685 358.895L730.259 360.313C777.579 405.982 791.973 481.125 766.458 541.527C754.557 576.965 728.429 612.266 723.123 650.238C720.592 668.148 722.722 686.704 733.119 706.252C763.256 753.728 816.112 804.091 783.131 865.471C748.4 916.165 690.417 965.499 713.577 1031.43C739.092 1089.11 792.352 1144.06 763.598 1215.58L720.53 1225.26C754.832 1155.56 703.402 1086.39 673.268 1025.94C636.615 939.209 752.014 897.679 753.869 818.389C753.431 767.205 698.733 738.145 687.182 691.1C663.506 671.229 638.97 698.996 610.671 693.841C589.783 698.017 557.694 665.233 545.222 700.774C530.374 752.874 462.708 791.174 492.442 852.973C520.741 907.888 588.837 948.041 566.09 1019.11C545.723 1085.49 478.44 1148.69 520.17 1225.26C503.025 1219.73 471.02 1230.31 471.483 1203.07C445.063 1110.35 557.728 1056.33 522.93 963.666C506.735 906.905 432.95 875.552 449.194 807.28C461.204 751.083 524.593 711.797 515.702 650.238C514.911 644.827 513.633 639.498 511.883 634.314C488.223 567.887 439.953 501.44 468.723 423.912C476.623 401.773 492.4 382.864 506.264 363.071C460.353 387.508 437.193 439.189 438.144 491.766C436.143 548.941 478.598 597.918 484.638 650.238C487.014 671.353 483.538 692.979 468.723 715.914C438.606 756.565 399.219 799.43 417.277 852.96C434.446 906.955 502.142 939.669 497.973 1002.43C497.511 1076.67 410.795 1122.89 435.372 1205.92L392.212 1191.99C375.075 1118.21 453.892 1080.46 454.797 1012.2C465.951 933.698 365.304 904.571 371.345 828.042C370.911 769.901 422.358 733.078 445.08 684.171C448.973 672.27 450.274 661.028 449.753 650.242C446.968 596.168 397.989 553.896 406.118 493.097C408.852 448.353 424.155 409.129 453.379 375.482C413.058 391.592 396.401 437.766 385.263 476.522C365.934 538.669 412.074 594.568 416.697 650.242C418.748 674.832 412.712 699.277 389.456 724.27C356.051 763.428 322.174 812.845 346.292 865.479C371.832 923.555 452.07 968.758 417.268 1041.19C398.281 1086.87 352.816 1121.44 354.683 1175.4C342.637 1170.32 330.14 1165.26 319.902 1156.06C319.902 1087.34 418.169 1044.42 371.349 971.997C367.201 986.283 366.309 1005.71 363.062 1021.85C346.813 1063.85 312.049 1097.46 299.039 1140.88C277.284 1132.53 254.537 1114.98 236.442 1096.53L261.506 1081.27C258.722 1072.03 251.315 1064.19 244.833 1056.35C228.559 1054.08 217.871 1064.7 204.449 1068.87C192.857 1058.69 181.668 1049.47 172.427 1037.01C180.747 1013.44 245.758 1032.93 212.823 994.17C190.589 980.345 168.271 1000.1 148.8 1009.32L122.406 976.156C145.128 962.331 167.792 942.908 196.054 948.481C203.019 960.958 203.503 979.304 216.921 985.818C264.691 984.898 298.539 948.949 335.158 920.801C309.635 883.024 288.86 830.866 311.532 785.173C329.694 739.393 377.03 700.828 379.173 650.213C379.661 638.698 377.856 626.577 372.791 613.531C347.764 549.401 338.931 462.726 386.701 405.965C360.728 412.907 345.413 445.115 336.588 469.564C307.872 532.184 344.191 590.201 345.446 650.209C345.617 661.007 344.738 671.822 342.107 682.72C317.522 732.074 277.688 775.379 271.219 832.173C242.924 850.128 219.693 881.527 179.376 870.932C177.959 881.532 181.206 897.687 184.903 909.696C152.931 908.357 131.13 931.802 104.215 942.87C89.8713 938.292 86.1406 919.852 80.5882 906.951C112.097 896.364 134.828 864.94 171.006 865.434C175.199 853.844 168.655 843.224 166.808 832.164C121.806 812.297 50.4713 930.393 44.4729 828.001C89.4419 825.235 118.175 783.705 162.715 779.567L164.044 746.401C113.502 741.326 80.9883 793.011 30.4669 787.918L19.3248 743.656C77.7662 747.289 112.585 695.189 168.242 692.386C175.637 682.711 176.529 668.413 177.954 655.048C117.204 647.169 75.5194 714.148 11.0379 693.808C11.0379 693.808 8.81607 665.933 7.61139 650.213H7.69904C7.45497 646.735 7.17004 643.26 6.84444 639.788C64.3396 661.977 114.857 620.895 164.044 599.693C176.554 595.969 196.062 602.426 201.669 588.596C201.189 577.985 220.639 565.578 204.445 558.176C132.535 548.464 84.7649 634.75 11.0295 595.517L5.49805 584.421C20.8254 375.934 139.017 174.377 335.15 75.1908C414.58 30.0326 513.263 7.0181 612.784 6.19704C732.885 5.20182 854.253 36.5472 944.533 100.121C1032.2 153.614 1116.06 241.778 1161.57 331.278C1205.1 409.697 1225.13 497.687 1231.11 591.358C1155.05 648.533 1104.02 537.496 1026.56 562.347C1030.73 574.361 1033.04 586.797 1041.9 596.944C1110.55 596.459 1157.82 667.969 1229.68 639.784L1229.76 650.217V650.217ZM356.005 393.454C307.768 362.08 246.617 391.625 201.664 408.714C197.492 366.716 180.347 328.454 144.599 300.778C141.13 299.057 136.337 295.45 132.018 295.18C129.434 295.019 126.974 296.059 125.065 299.344C141.268 398.509 76.4698 467.702 30.5504 542.924C45.8402 555.352 70.4046 553.498 88.95 549.841C137.629 530.48 183.999 496.771 241.961 508.323C259.105 479.263 287.901 451.115 311.515 428.055C325.946 415.631 345.763 407.748 356.005 393.454V393.454ZM503.488 455.73C502.559 461.702 503.951 472.35 513.205 468.233C527.602 448.399 553.092 464.094 568.849 465.488V459.906C560.204 446.4 542.421 439.62 524.355 440.292C520.187 440.441 515.952 441.042 511.875 441.988C505.835 443.323 501.625 448.822 503.488 455.73V455.73ZM730.238 396.307C717.287 367.699 687.608 356.121 660.684 349.2C647.478 347.583 633.777 346.492 620.187 346.36C617.641 346.335 615.098 346.301 612.559 346.36C574.551 347.123 538.232 356.83 516.043 387.956C512.859 396.743 498.857 409.083 511.858 416.958C541.075 415.105 574.414 411.46 593.889 436.398C593.889 458.567 608.278 488.05 584.172 498.662C564.201 480.267 540.55 506.495 518.819 491.732C508.603 485.724 502.137 492.732 497.952 501.498C491.912 558.682 522.017 621.799 575.794 653.618C597.59 661.438 626.89 668.873 649.637 657.781C704.348 632.436 727.012 574.348 737.208 520.83C735.841 510.646 736.32 490.799 721.96 490.314C705.74 500.524 682.084 494.49 664.898 490.314C654.731 493.578 654.264 508.373 642.697 511.176L635.648 505.582C629.608 480.246 625.886 444.256 649.562 426.724C676.015 416.112 707.083 411.48 734.436 419.807C739.542 411.041 731.664 404.145 730.238 396.307V396.307ZM702.322 441.789C700.484 441.839 698.7 441.93 696.882 441.988C687.17 448.436 658.854 443.8 669.079 465.488C686.707 451.617 711.284 461.337 728.904 468.233C735.415 465.019 734.011 458.558 734.432 452.985C728.771 442.515 715.257 441.536 702.322 441.789ZM904.212 246.746C869.889 244.934 841.148 264.32 809.609 273.086C806.866 246.39 827.25 218.196 831.902 191.395C780.914 194.659 740.522 225.196 698.333 249.587C688.542 226.067 678.793 202.53 669.087 178.976L724.736 126.378L726.162 119.445L650.992 115.282C638.049 92.7151 632.943 65.5329 617.645 44.7742C605.123 68.3029 596.711 93.2002 584.201 116.7L509.128 120.876V126.378L566.106 177.558C559.141 203.865 552.667 232.448 535.522 252.328C502.142 232.436 469.228 210.79 432.629 196.973C423.821 194.149 411.266 189.55 403.383 195.554C414.959 220.937 431.17 248.235 428.444 275.935C413.129 273.132 401.095 263.366 386.709 259.261C369.506 254.588 349.098 245.469 332.407 251.017C360.236 289.74 382.949 330.274 390.807 376.88C483.125 332.551 590.787 308.172 702.543 327.119C754.932 335.408 803.098 356.639 849.943 374.122C851.773 325.257 882.832 285.991 904.212 246.746V246.746ZM1062.75 512.491C1110.01 524.931 1157.42 576.16 1207.47 542.924C1163.88 470.974 1099 404.526 1117.05 310.44C1118.94 304.017 1114.76 297.515 1108.76 296.603C1080.49 308.097 1058.59 335.81 1047.4 363.046C1042.8 379.16 1040.08 396.282 1033.6 411.472C999.719 393.931 963.579 376.946 922.311 381.047C907.422 382.892 886.096 383.863 883.345 399.065C930.173 423.962 968.685 465.508 997.389 509.758C1017.38 506.52 1041.89 509.286 1062.75 512.491V512.491ZM567.515 577.52L568.849 585.859C586.969 597.864 592.542 618.217 617.632 616.371C639.875 617.682 656.565 596.948 667.645 580.353C637.549 576.214 600.908 582.613 567.515 577.52V577.52ZM592.563 540.179C593.468 543.869 590.266 549.405 595.323 551.276C610.167 548.07 637.049 559.129 645.336 541.597C639.546 535.149 630.104 532.221 620.187 532.221C610.279 532.221 600 535.091 592.563 540.179V540.179Z" fill="#106E33"/>
<path opacity="0.99" d="M567.549 524.169H669.229V565.723H567.549V524.169Z" fill="white"/>
<path d="M586.327 546.391C599.466 549.484 602.718 554.116 613.097 555.414C624.143 555.219 622.551 552.988 641.797 546.378C643.068 545.935 644.802 543.157 642.651 541.029C630.692 529.228 622.426 537.662 614.94 537.886C604.989 537.99 595.669 529.418 585.956 540.565C584.302 542.825 583.439 545.051 586.327 546.391Z" fill="#106E33"/>
<path d="M1066.68 1228.21V1169.03H1045.43V1156.98H1102.34V1169.03H1081.14V1228.21H1066.68V1228.21ZM1111.53 1228.21V1156.97H1133.17L1146.16 1205.57L1159.01 1156.97H1180.7V1228.21H1167.26V1172.14L1153.05 1228.21H1139.12L1124.96 1172.14V1228.21H1111.53Z" fill="#106E33"/>
</g>
<defs>
<clipPath id="clip0">
<rect width="1240" height="1240" fill="white"/>
</clipPath>
</defs>
</svg>
